<?xml version="1.0" encoding="UTF-8"?>
<svg xmlns="http://www.w3.org/2000/svg" version="1.1" viewBox="0 0 238.11 135.354">
  <defs>
    <style>
      .cls-1 {
        fill: none;
      }

      .cls-1, .cls-2 {
        stroke-width: 0px;
      }

      .cls-2 {
        fill: #005aff;
      }
    </style>
  </defs>
  <g id="clear_area" data-name="clear area">
    <rect class="cls-1" x="0" width="238.11" height="135.354"/>
  </g>
  <g id="grafik">
    <path class="cls-2" d="M21.362,66.883h35.922c5.255-1.048,4.67-7.673,0-8.591h-18.44c-9.816,0-17.584-8.38-17.584-18.361,0-9.601,7.179-18.587,17.584-18.587h20.235c8.342,0,14.3,6.246,14.3,14.167h-34.534c-4.644.664-4.938,7.781-.001,8.59h18.39c10.092.27,18.137,8.302,18.137,18.471,0,9.37-7.951,18.783-18.088,18.783h-18.964c-8.069,0-16.959-4.356-16.959-14.472h0ZM80.695,21.341h0v60.013h14.173V21.341h-14.173ZM159.327,66.181h0l-12.674-6.882c-2.785,5.414-8.402,9.042-14.707,9.042-9.009,0-16.548-7.411-16.548-16.845s7.538-16.844,16.548-16.844c6.178,0,11.665,3.487,14.503,8.719l12.69-6.848c-5.255-9.709-15.462-16.292-27.193-16.292-17.104,0-30.968,13.997-30.968,31.265s13.864,31.267,30.968,31.267c11.846,0,22.172-6.714,27.381-16.582h0ZM164.669,21.341v60.013h14.334v-23.252h5.038l15.084,23.252h17.629l-20.01-29.628,20.305-30.385h-17.624l-14.9,24.069h-5.521v-24.069h-14.334ZM21.757,101.97c0-3.094,3.229-4.539,5.984-4.539,3.003,0,5.6,1.377,6.232,4.674h-2.484c-.519-1.942-2.304-2.529-3.861-2.529-1.197,0-3.252.565-3.252,2.281,0,1.355,1.084,2.055,2.484,2.348l1.942.407c2.62.542,5.487,1.535,5.487,4.832,0,3.252-3.116,4.945-6.3,4.945-3.794,0-6.345-2.1-6.729-5.532h2.529c.475,2.236,1.987,3.387,4.291,3.387,2.123,0,3.613-1.016,3.613-2.597,0-1.694-1.626-2.371-3.387-2.732l-2.01-.407c-2.326-.474-4.538-1.784-4.538-4.539ZM47.453,110.528c-.564,2.01-2.371,3.861-5.465,3.861-3.929,0-6.051-2.868-6.051-6.39,0-3.771,2.529-6.277,5.984-6.277,3.749,0,5.939,3.071,5.69,7.023h-9.258c.226,2.236,1.648,3.636,3.545,3.636,1.693,0,2.687-.7,3.184-1.852h2.371ZM45.173,106.892c-.068-1.807-1.332-3.252-3.274-3.252-1.829,0-3.184.948-3.5,3.252h6.774ZM55.853,101.721c2.935,0,4.064,1.897,4.064,4.719v7.655h-2.348v-7.023c0-1.761-.293-3.387-2.507-3.387-2.032,0-3.026,1.468-3.026,3.884v6.526h-2.348v-12.148h2.348v1.761c.7-1.197,1.919-1.987,3.816-1.987ZM66.782,103.595c-1.152,0-2.393.474-2.393,1.468,0,.903.587,1.287,1.693,1.513l1.739.339c2.303.452,4.313,1.242,4.313,3.613,0,2.461-2.304,3.861-5.103,3.861-3.071,0-4.945-1.784-5.239-4.065h2.393c.316,1.377,1.219,2.19,2.913,2.19,1.513,0,2.687-.632,2.687-1.716,0-1.129-1.061-1.581-2.326-1.829l-1.829-.361c-1.829-.361-3.545-1.174-3.545-3.455,0-2.145,2.258-3.455,4.922-3.455,2.439,0,4.403,1.287,4.855,3.636h-2.326c-.339-1.242-1.377-1.739-2.755-1.739ZM79.337,114.389c-2.868,0-5.894-1.942-5.894-6.323,0-4.403,3.026-6.345,5.894-6.345,2.89,0,5.916,1.942,5.916,6.345,0,4.381-3.026,6.323-5.916,6.323ZM82.769,108.066c0-3.026-1.649-4.358-3.432-4.358-1.762,0-3.41,1.287-3.41,4.358,0,3.003,1.648,4.336,3.41,4.336,1.784,0,3.432-1.377,3.432-4.336ZM92.478,104.295c-1.807,0-2.755.881-2.755,3.432v6.368h-2.348v-12.148h2.303v2.145c.632-1.377,1.851-2.168,3.364-2.19.203,0,.452,0,.655.023v2.439c-.429-.045-.836-.068-1.219-.068ZM100.833,114.096v-16.371h2.574v16.371h-2.574ZM112.62,101.721c2.935,0,4.064,1.897,4.064,4.719v7.655h-2.348v-7.023c0-1.761-.293-3.387-2.507-3.387-2.032,0-3.026,1.468-3.026,3.884v6.526h-2.348v-12.148h2.348v1.761c.7-1.197,1.919-1.987,3.816-1.987ZM122.103,98.831v3.116h2.393v1.784h-2.393v6.932c0,1.242.203,1.558,1.377,1.558h.994v1.874h-1.716c-2.461,0-3.003-.61-3.003-3.116v-7.249h-1.851v-1.784h1.851v-3.116h2.348ZM137.006,110.528c-.564,2.01-2.371,3.861-5.465,3.861-3.929,0-6.051-2.868-6.051-6.39,0-3.771,2.529-6.277,5.984-6.277,3.749,0,5.939,3.071,5.69,7.023h-9.258c.226,2.236,1.648,3.636,3.545,3.636,1.693,0,2.687-.7,3.184-1.852h2.371ZM134.726,106.892c-.068-1.807-1.332-3.252-3.274-3.252-1.829,0-3.184.948-3.5,3.252h6.774ZM139.128,114.096v-16.371h2.348v16.371h-2.348ZM144.299,114.096v-16.371h2.348v16.371h-2.348ZM151.819,100.321h-2.348v-2.597h2.348v2.597ZM151.819,114.096h-2.348v-12.148h2.348v12.148ZM165.073,101.947v10.726c0,2.235-.474,3.432-1.31,4.268-.926.971-2.394,1.468-4.245,1.468-2.71,0-4.697-1.174-5.081-3.726h2.416c.248,1.107.948,1.761,2.709,1.761,1.152,0,1.942-.316,2.439-.881.474-.519.722-1.152.722-2.394v-1.287c-.745,1.242-1.965,2.01-3.748,2.01-2.823,0-5.171-2.236-5.171-6.097,0-3.839,2.348-6.074,5.171-6.074,1.784,0,3.003.768,3.748,2.01v-1.784h2.348ZM156.312,107.795c0,2.642,1.264,4.178,3.206,4.178,1.807,0,3.297-1.264,3.297-4.178,0-2.89-1.49-4.132-3.297-4.132-1.942,0-3.206,1.535-3.206,4.132ZM178.553,110.528c-.564,2.01-2.371,3.861-5.465,3.861-3.929,0-6.051-2.868-6.051-6.39,0-3.771,2.529-6.277,5.984-6.277,3.749,0,5.939,3.071,5.69,7.023h-9.258c.226,2.236,1.648,3.636,3.545,3.636,1.693,0,2.687-.7,3.184-1.852h2.371ZM176.273,106.892c-.068-1.807-1.332-3.252-3.274-3.252-1.829,0-3.184.948-3.5,3.252h6.774ZM186.84,101.721c2.935,0,4.064,1.897,4.064,4.719v7.655h-2.348v-7.023c0-1.761-.293-3.387-2.507-3.387-2.032,0-3.026,1.468-3.026,3.884v6.526h-2.348v-12.148h2.348v1.761c.7-1.197,1.919-1.987,3.816-1.987ZM201.45,106.057c-.248-1.378-1.49-2.326-3.026-2.326-1.694,0-3.252,1.332-3.252,4.29,0,3.003,1.581,4.358,3.252,4.358,1.49,0,2.8-.881,3.116-2.326h2.371c-.475,2.552-2.845,4.336-5.532,4.336-3.5,0-5.713-2.687-5.713-6.345,0-3.613,2.281-6.323,5.871-6.323,2.778,0,4.9,1.964,5.261,4.336h-2.348ZM216.578,110.528c-.564,2.01-2.371,3.861-5.465,3.861-3.929,0-6.051-2.868-6.051-6.39,0-3.771,2.529-6.277,5.984-6.277,3.749,0,5.939,3.071,5.69,7.023h-9.258c.226,2.236,1.648,3.636,3.545,3.636,1.693,0,2.687-.7,3.184-1.852h2.371ZM214.297,106.892c-.068-1.807-1.332-3.252-3.274-3.252-1.829,0-3.184.948-3.5,3.252h6.774Z"/>
  </g>
</svg>